<?xml version="1.0" encoding="UTF-8" standalone="no"?>
<!DOCTYPE svg PUBLIC "-//W3C//DTD SVG 1.1//EN" "http://www.w3.org/Graphics/SVG/1.1/DTD/svg11.dtd">
<svg xmlns="http://www.w3.org/2000/svg" version="1.1" viewBox="0.00 0.00 1448.00 1448.00">
<g stroke-width="2.00" fill="none" stroke-linecap="butt">
<path stroke="#fcd995" vector-effect="non-scaling-stroke" d="
  M 93.05 513.23
  Q 79.38 557.34 101.77 596.77"
/>
<path stroke="#fabf8b" vector-effect="non-scaling-stroke" d="
  M 101.77 596.77
  C 124.95 635.71 166.52 662.46 206.43 681.60"
/>
<path stroke="#f59d8f" vector-effect="non-scaling-stroke" d="
  M 206.43 681.60
  C 244.12 699.82 284.09 713.28 322.81 729.19
  C 369.11 748.20 413.50 772.77 447.87 809.86
  C 459.48 822.38 468.08 835.70 476.57 850.42
  Q 476.90 850.99 477.12 850.37
  C 493.01 805.19 449.97 764.33 417.00 740.74
  C 383.13 716.52 344.81 696.26 306.73 678.71"
/>
<path stroke="#fabf8b" vector-effect="non-scaling-stroke" d="
  M 306.73 678.71
  C 257.76 655.74 207.21 635.91 172.25 595.46"
/>
<path stroke="#fcd995" vector-effect="non-scaling-stroke" d="
  M 172.25 595.46
  C 153.01 572.82 143.01 543.28 155.15 514.67"
/>
<path stroke="#fef09a" vector-effect="non-scaling-stroke" d="
  M 155.15 514.67
  C 187.21 434.67 317.65 492.61 368.64 516.10
  A 0.23 0.23 0.0 0 0 368.88 515.72
  C 329.80 484.42 283.01 458.83 234.26 446.21
  C 170.31 429.64 114.01 445.30 93.05 513.23"
/>
<path stroke="#fbc92f" vector-effect="non-scaling-stroke" d="
  M 155.15 514.67
  Q 152.42 512.54 147.25 512.29
  Q 117.82 510.89 93.05 513.23"
/>
<path stroke="#f79921" vector-effect="non-scaling-stroke" d="
  M 172.25 595.46
  Q 170.33 595.51 168.38 595.93
  C 164.80 596.69 160.99 596.05 157.06 596.15
  C 139.65 596.56 120.20 595.37 101.77 596.77"
/>
<path stroke="#f05d1b" vector-effect="non-scaling-stroke" d="
  M 306.73 678.71
  Q 303.72 679.87 298.07 679.84
  C 268.72 679.70 239.38 679.50 210.02 679.49
  Q 209.91 679.49 208.15 679.23
  Q 206.30 678.96 206.43 681.60"
/>
<path stroke="#8690a1" vector-effect="non-scaling-stroke" d="
  M 514.88 467.67
  Q 493.89 478.04 479.44 488.95
  C 455.46 507.06 431.37 525.81 404.76 539.85"
/>
<path stroke="#81abf0" vector-effect="non-scaling-stroke" d="
  M 404.76 539.85
  C 365.99 560.32 325.74 559.86 284.85 546.21
  A 0.46 0.46 0.0 0 0 284.25 546.70
  Q 284.33 547.45 285.39 548.80"
/>
<path stroke="#8690a1" vector-effect="non-scaling-stroke" d="
  M 285.39 548.80
  L 281.98 547.56
  A 0.36 0.36 0.0 0 0 281.61 548.15
  C 307.88 574.07 341.86 590.07 379.17 586.16"
/>
<path stroke="#81abf0" vector-effect="non-scaling-stroke" d="
  M 379.17 586.16
  Q 380.97 586.39 382.21 586.24
  C 418.62 581.63 452.23 564.69 482.49 544.73
  C 508.25 527.74 535.65 505.32 567.48 501.91"
/>
<path stroke="#8690a1" vector-effect="non-scaling-stroke" d="
  M 567.48 501.91
  C 607.50 500.08 607.21 542.36 604.40 569.68
  Q 595.45 656.72 571.08 740.73
  C 555.36 794.88 534.70 849.20 505.73 897.73
  C 496.39 913.38 486.22 927.41 471.22 937.41"
/>
<path stroke="#81abf0" vector-effect="non-scaling-stroke" d="
  M 471.22 937.41
  C 416.17 961.40 387.69 815.09 382.13 784.37
  C 381.93 783.26 382.19 781.91 381.96 780.86
  A 0.67 0.67 0.0 0 0 380.64 781.05
  Q 381.20 788.17 380.10 794.38"
/>
<path stroke="#8690a1" vector-effect="non-scaling-stroke" d="
  M 380.10 794.38
  L 378.64 782.79
  A 0.16 0.15 44.5 0 0 378.33 782.79
  C 377.27 794.91 376.87 807.54 376.78 819.75
  C 376.54 852.74 376.92 883.56 381.49 915.41
  C 386.31 948.96 400.41 991.37 434.31 1006.20
  Q 444.10 1010.48 454.74 1009.08"
/>
<path stroke="#81abf0" vector-effect="non-scaling-stroke" d="
  M 454.74 1009.08
  Q 460.15 1009.99 467.26 1008.22
  C 500.52 999.95 524.43 971.28 542.09 943.83
  Q 562.59 911.99 579.43 875.68
  Q 627.19 772.73 648.85 661.27
  Q 657.85 614.93 659.23 567.76
  C 660.54 523.15 654.01 459.01 599.17 448.96
  C 593.27 447.88 586.63 448.28 580.32 448.24
  C 558.83 448.11 533.64 457.59 514.88 467.67"
/>
<path stroke="#083b92" vector-effect="non-scaling-stroke" d="
  M 454.74 1009.08
  Q 438.27 1008.15 425.86 998.85
  C 422.62 996.42 419.31 994.05 416.61 991.12
  C 390.31 962.61 383.41 920.08 380.65 881.50
  Q 377.53 837.86 380.10 794.38"
/>
<path stroke="#083b92" vector-effect="non-scaling-stroke" d="
  M 471.22 937.41
  C 487.35 928.91 498.84 912.67 508.06 897.28
  C 537.09 848.81 557.90 794.16 573.65 740.04
  Q 599.23 652.16 607.76 561.00
  C 609.82 538.95 608.72 509.57 582.61 502.03
  Q 574.75 499.76 567.48 501.91"
/>
<path stroke="#083b92" vector-effect="non-scaling-stroke" d="
  M 379.17 586.16
  C 371.07 585.55 362.19 586.04 355.06 585.04
  C 337.46 582.59 318.99 574.66 304.65 564.11
  Q 299.13 560.06 285.39 548.80"
/>
<path stroke="#083b92" vector-effect="non-scaling-stroke" d="
  M 404.76 539.85
  L 405.16 539.98
  Q 405.65 540.15 406.10 539.90
  C 432.71 525.51 456.59 507.30 480.77 489.28
  Q 491.36 481.38 514.88 467.67"
/>
<path stroke="#81abf0" vector-effect="non-scaling-stroke" d="
  M 899.37 656.62
  C 903.59 681.80 922.83 692.75 947.08 691.26
  C 974.70 689.57 987.53 670.70 987.53 644.00
  Q 987.53 595.67 987.48 547.34
  C 987.46 528.36 981.84 510.75 963.62 502.91
  C 953.31 498.47 940.02 498.08 928.94 500.67
  C 908.10 505.55 898.46 524.00 898.46 544.25
  Q 898.46 592.72 898.53 641.19
  Q 898.55 651.71 899.37 656.62"
/>
<path stroke="#81abf0" vector-effect="non-scaling-stroke" d="
  M 1207.50 528.84
  A 0.34 0.34 0.0 0 1 1207.84 528.50
  L 1237.91 528.50
  A 0.34 0.34 0.0 0 0 1238.25 528.16
  L 1238.25 502.09
  A 0.34 0.34 0.0 0 0 1237.91 501.75
  L 1147.84 501.75
  A 0.34 0.34 0.0 0 0 1147.50 502.09
  L 1147.50 528.16
  A 0.34 0.34 0.0 0 0 1147.84 528.50
  L 1177.66 528.50
  A 0.34 0.34 0.0 0 1 1178.00 528.84
  L 1178.00 688.41
  A 0.34 0.34 0.0 0 0 1178.34 688.75
  L 1207.16 688.75
  A 0.34 0.34 0.0 0 0 1207.50 688.41
  L 1207.50 528.84"
/>
<path stroke="#81abf0" vector-effect="non-scaling-stroke" d="
  M 1253.60 501.75
  Q 1252.20 501.75 1252.22 503.15
  L 1252.52 528.05
  Q 1252.53 528.44 1252.32 528.78
  Q 1252.20 528.98 1252.20 529.26
  Q 1252.21 608.71 1252.28 688.23
  Q 1252.28 688.75 1252.80 688.75
  L 1281.00 688.75
  Q 1281.50 688.75 1281.50 688.25
  L 1281.50 502.38
  Q 1281.50 501.75 1280.88 501.75
  L 1253.60 501.75"
/>
<path stroke="#81abf0" vector-effect="non-scaling-stroke" d="
  M 827.85 612.67
  C 839.15 613.15 852.67 612.98 862.38 608.74
  C 878.85 601.53 884.64 585.22 884.75 568.00
  C 884.84 554.91 885.84 540.58 881.95 528.01
  C 876.16 509.30 860.43 501.76 841.74 501.74
  Q 820.17 501.70 798.48 501.78
  Q 798.00 501.78 798.00 502.26
  L 798.00 688.28
  Q 798.00 688.75 798.47 688.75
  L 826.75 688.75
  Q 827.25 688.75 827.25 688.25
  L 827.25 613.24
  Q 827.25 612.64 827.85 612.67"
/>
<path stroke="#81abf0" vector-effect="non-scaling-stroke" d="
  M 1055.58 529.01
  Q 1029.14 594.72 1002.46 660.35
  Q 1001.47 662.78 1001.47 665.40
  Q 1001.49 676.78 1001.51 688.25
  Q 1001.51 688.75 1002.01 688.75
  L 1086.90 688.75
  Q 1087.55 688.75 1087.54 688.10
  L 1087.20 662.44
  A 0.45 0.44 -0.0 0 0 1086.75 662.00
  L 1033.49 662.00
  A 0.38 0.38 0.0 0 1 1033.14 661.48
  Q 1059.42 596.76 1085.74 531.98
  C 1089.18 523.53 1087.05 511.51 1087.54 502.35
  A 0.58 0.57 1.4 0 0 1086.96 501.75
  L 1004.75 501.75
  Q 1004.25 501.75 1004.25 502.25
  L 1004.25 528.00
  Q 1004.25 528.50 1004.75 528.50
  L 1055.24 528.50
  Q 1055.79 528.50 1055.58 529.01"
/>
<path stroke="#81abf0" vector-effect="non-scaling-stroke" d="
  M 1133.75 502.02
  A 0.27 0.27 0.0 0 0 1133.48 501.75
  L 1104.78 501.75
  A 0.27 0.27 0.0 0 0 1104.51 502.02
  L 1104.51 688.48
  A 0.27 0.27 0.0 0 0 1104.78 688.75
  L 1133.48 688.75
  A 0.27 0.27 0.0 0 0 1133.75 688.48
  L 1133.75 502.02"
/>
<path stroke="#81abf0" vector-effect="non-scaling-stroke" d="
  M 1344.66 646.20
  Q 1344.12 647.15 1343.80 646.46
  C 1343.61 646.05 1343.67 643.49 1343.51 642.25
  Q 1334.21 572.32 1324.90 502.31
  A 0.65 0.64 -3.5 0 0 1324.26 501.75
  L 1296.03 501.75
  A 0.65 0.65 0.0 0 0 1295.39 502.49
  L 1323.43 688.28
  Q 1323.50 688.75 1323.97 688.75
  L 1361.99 688.75
  A 0.56 0.56 0.0 0 0 1362.54 688.27
  L 1390.71 502.26
  Q 1390.78 501.75 1390.27 501.75
  L 1364.30 501.75
  Q 1363.85 501.75 1363.79 502.20
  L 1344.73 646.01
  A 0.45 0.38 -29.2 0 1 1344.66 646.20"
/>
<path stroke="#8690a1" vector-effect="non-scaling-stroke" d="
  M 144.27 711.67
  Q 132.04 716.86 126.30 725.55
  C 109.92 750.33 150.04 773.39 167.34 781.01
  Q 167.95 781.28 167.35 781.59
  C 122.67 804.35 162.24 832.63 186.85 842.74"
/>
<path stroke="#81abf0" vector-effect="non-scaling-stroke" d="
  M 186.85 842.74
  L 180.71 845.91"
/>
<path stroke="#8690a1" vector-effect="non-scaling-stroke" d="
  M 180.71 845.91
  Q 172.88 848.86 168.03 853.34
  C 144.68 874.86 189.20 895.87 204.22 901.34"
/>
<path stroke="#81abf0" vector-effect="non-scaling-stroke" d="
  M 204.22 901.34
  L 197.72 904.77"
/>
<path stroke="#8690a1" vector-effect="non-scaling-stroke" d="
  M 197.72 904.77
  C 188.29 909.39 181.59 918.43 188.83 928.47
  C 195.14 937.22 206.84 943.26 216.52 947.56
  A 1.11 1.09 4.5 0 1 217.11 948.24
  C 222.48 966.11 230.55 985.35 242.84 999.65
  Q 249.27 1007.13 258.16 1006.98"
/>
<path stroke="#81abf0" vector-effect="non-scaling-stroke" d="
  M 258.16 1006.98
  Q 264.37 1006.38 267.99 1003.48
  C 279.79 994.01 286.51 968.16 289.53 953.69
  A 1.44 1.44 0.0 0 1 290.54 952.61
  Q 309.34 947.16 315.85 928.78
  A 0.50 0.50 0.0 0 0 315.13 928.18
  C 304.64 934.16 295.45 938.80 282.98 939.09
  C 279.49 939.17 275.99 940.52 272.54 939.73
  Q 270.53 939.27 268.93 939.23
  C 254.52 938.84 226.29 933.09 218.27 919.23
  Q 214.82 913.28 219.27 905.42"
/>
<path stroke="#8690a1" vector-effect="non-scaling-stroke" d="
  M 219.27 905.42
  Q 239.45 911.41 260.78 909.75"
/>
<path stroke="#81abf0" vector-effect="non-scaling-stroke" d="
  M 260.78 909.75
  C 283.54 909.31 307.31 900.00 314.96 876.54
  A 0.34 0.34 0.0 0 0 314.47 876.13
  C 312.74 877.07 310.93 877.70 309.27 878.79
  Q 295.41 887.83 276.99 889.10
  C 253.52 890.72 222.36 887.26 204.48 871.55
  Q 193.02 861.48 201.19 849.00"
/>
<path stroke="#8690a1" vector-effect="non-scaling-stroke" d="
  M 201.19 849.00
  Q 202.47 848.99 202.95 849.15
  Q 227.29 856.81 252.37 857.84"
/>
<path stroke="#81abf0" vector-effect="non-scaling-stroke" d="
  M 252.37 857.84
  C 283.62 859.71 319.86 850.43 330.62 817.53
  A 0.38 0.38 0.0 0 0 330.07 817.09
  C 328.08 818.27 326.12 819.03 324.17 820.34
  C 300.65 836.11 267.23 836.12 240.71 830.39
  C 224.50 826.90 209.42 821.82 197.06 811.49
  C 191.68 806.98 187.02 797.06 191.10 790.09"
/>
<path stroke="#8690a1" vector-effect="non-scaling-stroke" d="
  M 191.10 790.09
  C 213.51 796.85 236.56 800.38 259.97 799.47"
/>
<path stroke="#81abf0" vector-effect="non-scaling-stroke" d="
  M 259.97 799.47
  C 292.63 798.48 326.07 786.16 337.15 752.44
  Q 337.31 751.97 336.82 752.09
  Q 333.58 752.89 332.05 754.04
  C 312.87 768.45 285.69 772.66 262.44 771.37
  C 237.67 770.00 213.51 765.19 191.59 753.15
  Q 182.04 747.90 176.57 740.66
  C 160.83 719.84 186.38 703.96 201.13 694.87
  A 0.32 0.31 24.5 0 0 200.91 694.29
  Q 175.30 698.31 150.99 707.96
  Q 147.00 709.55 144.27 711.67"
/>
<path stroke="#083b92" vector-effect="non-scaling-stroke" d="
  M 259.97 799.47
  Q 260.54 799.07 259.39 798.81
  Q 259.05 798.73 258.59 798.73
  Q 224.79 799.25 192.66 788.84
  A 1.27 1.25 -49.9 0 0 191.71 788.93
  Q 190.80 789.41 191.10 790.09"
/>
<path stroke="#083b92" vector-effect="non-scaling-stroke" d="
  M 252.37 857.84
  Q 254.36 856.96 256.39 857.26
  Q 256.44 857.26 256.44 857.21
  Q 256.44 857.19 256.44 857.16
  Q 256.43 857.06 256.33 857.06
  C 237.86 857.06 221.35 853.09 203.66 847.59
  Q 203.15 847.43 202.74 847.76
  L 201.19 849.00"
/>
<path stroke="#083b92" vector-effect="non-scaling-stroke" d="
  M 260.78 909.75
  Q 240.14 908.94 219.27 905.42"
/>
<path stroke="#083b92" vector-effect="non-scaling-stroke" d="
  M 258.16 1006.98
  Q 248.51 1002.85 243.29 995.94
  C 232.56 981.72 225.82 964.51 220.21 947.91
  Q 220.05 947.44 219.64 947.17
  Q 218.80 946.61 217.91 946.21
  C 206.20 941.03 177.67 925.10 193.56 908.91
  Q 195.54 906.89 197.72 904.77"
/>
<path stroke="#083b92" vector-effect="non-scaling-stroke" d="
  M 204.22 901.34
  Q 205.03 901.60 206.13 901.13
  A 0.54 0.53 43.0 0 0 206.09 900.14
  C 191.71 894.98 169.88 884.43 165.15 868.62
  C 163.58 863.39 165.90 857.13 169.57 853.57
  Q 172.84 850.40 180.71 845.91"
/>
<path stroke="#083b92" vector-effect="non-scaling-stroke" d="
  M 186.85 842.74
  Q 187.81 843.38 188.66 842.64
  A 0.65 0.64 -52.8 0 0 188.52 841.57
  C 165.40 830.53 125.99 804.35 169.29 781.25
  A 0.91 0.90 -47.2 0 0 169.23 779.62
  C 144.20 768.76 99.99 737.74 144.27 711.67"
/>
<path stroke="#fabf8b" vector-effect="non-scaling-stroke" d="
  M 797.85 723.45
  L 798.13 882.85
  A 0.84 0.84 0.0 0 0 798.97 883.69
  L 839.09 883.62
  A 35.50 35.42 89.9 0 0 874.45 848.05
  L 874.29 757.97
  A 35.50 35.42 89.9 0 0 838.81 722.54
  L 798.69 722.61
  A 0.84 0.84 0.0 0 0 797.85 723.45"
/>
<path stroke="#fabf8b" vector-effect="non-scaling-stroke" d="
  M 951.25 788.72
  A 0.47 0.47 0.0 0 0 950.78 788.25
  L 916.72 788.25
  A 0.47 0.47 0.0 0 1 916.25 787.78
  L 916.44 745.97
  A 0.47 0.47 0.0 0 1 916.91 745.50
  L 959.74 745.50
  A 0.47 0.47 0.0 0 0 960.21 745.03
  L 960.27 723.21
  A 0.47 0.47 0.0 0 0 959.80 722.74
  L 891.74 722.66
  A 0.47 0.47 0.0 0 0 891.27 723.13
  L 891.20 883.03
  A 0.47 0.47 0.0 0 0 891.67 883.50
  L 959.53 883.50
  A 0.47 0.47 0.0 0 0 960.00 883.03
  L 960.08 861.22
  A 0.47 0.47 0.0 0 0 959.61 860.75
  L 916.83 860.75
  A 0.47 0.47 0.0 0 1 916.36 860.28
  L 916.35 811.72
  A 0.47 0.47 0.0 0 1 916.82 811.25
  L 950.78 811.25
  A 0.47 0.47 0.0 0 0 951.25 810.78
  L 951.25 788.72"
/>
<path stroke="#fabf8b" vector-effect="non-scaling-stroke" d="
  M 997.83 766.49
  L 1027.77 882.45
  Q 1028.04 883.51 1029.14 883.51
  L 1053.50 883.50
  Q 1054.00 883.49 1054.00 883.00
  L 1054.00 723.26
  Q 1054.00 722.77 1053.51 722.77
  L 1032.02 722.72
  Q 1031.50 722.72 1031.50 723.23
  L 1031.50 816.47
  Q 1031.50 820.96 1030.39 816.61
  L 1006.53 723.36
  Q 1006.35 722.65 1005.61 722.65
  L 975.23 722.79
  Q 974.75 722.80 974.75 723.27
  L 974.75 883.00
  Q 974.75 883.50 975.25 883.50
  L 996.74 883.50
  A 0.51 0.51 0.0 0 0 997.25 882.99
  Q 997.25 829.28 997.25 775.53
  C 997.25 773.16 996.61 769.59 997.39 766.49
  Q 997.61 765.63 997.83 766.49"
/>
<path stroke="#fabf8b" vector-effect="non-scaling-stroke" d="
  M 1066.60 745.04
  A 0.46 0.46 0.0 0 0 1067.06 745.50
  L 1092.54 745.50
  A 0.46 0.46 0.0 0 1 1093.00 745.96
  L 1093.00 883.04
  A 0.46 0.46 0.0 0 0 1093.46 883.50
  L 1117.86 883.50
  A 0.46 0.46 0.0 0 0 1118.32 883.04
  L 1118.57 745.95
  A 0.46 0.46 0.0 0 1 1119.03 745.49
  L 1144.29 745.53
  A 0.46 0.46 0.0 0 0 1144.75 745.07
  L 1144.75 723.05
  A 0.46 0.46 0.0 0 0 1144.29 722.59
  L 1066.91 722.82
  A 0.46 0.46 0.0 0 0 1066.45 723.28
  L 1066.60 745.04"
/>
<path stroke="#fabf8b" vector-effect="non-scaling-stroke" d="
  M 1196.18 852.11
  A 0.38 0.38 0.0 0 1 1196.56 852.44
  L 1200.97 883.17
  A 0.38 0.38 0.0 0 0 1201.35 883.50
  L 1225.80 883.50
  A 0.38 0.38 0.0 0 0 1226.18 883.06
  L 1200.09 723.06
  A 0.38 0.38 0.0 0 0 1199.72 722.74
  L 1166.09 722.73
  A 0.38 0.38 0.0 0 0 1165.72 723.05
  L 1139.65 883.04
  A 0.38 0.38 0.0 0 0 1140.03 883.48
  L 1162.66 883.54
  A 0.38 0.38 0.0 0 0 1163.04 883.21
  L 1167.53 852.63
  A 0.38 0.38 0.0 0 1 1167.91 852.31
  L 1196.18 852.11"
/>
<path stroke="#81abf0" vector-effect="non-scaling-stroke" d="
  M 958.22 540.37
  A 14.68 14.68 0.0 0 0 943.54 525.69
  L 942.44 525.69
  A 14.68 14.68 0.0 0 0 927.76 540.37
  L 927.76 650.07
  A 14.68 14.68 0.0 0 0 942.44 664.75
  L 943.54 664.75
  A 14.68 14.68 0.0 0 0 958.22 650.07
  L 958.22 540.37"
/>
<path stroke="#81abf0" vector-effect="non-scaling-stroke" d="
  M 827.24 528.99
  L 827.24 585.47
  A 0.57 0.57 0.0 0 0 827.81 586.04
  L 841.75 586.04
  A 13.79 13.75 90.0 0 0 855.50 572.25
  L 855.50 542.21
  A 13.79 13.75 -90.0 0 0 841.75 528.42
  L 827.81 528.42
  A 0.57 0.57 0.0 0 0 827.24 528.99"
/>
<path stroke="#fabf8b" vector-effect="non-scaling-stroke" d="
  M 843.92 748.11
  C 839.37 744.28 829.88 745.40 824.18 745.53
  Q 823.25 745.56 823.25 746.49
  L 823.25 860.00
  Q 823.25 860.51 823.76 860.55
  C 837.16 861.41 848.92 862.02 848.98 845.75
  Q 849.10 814.00 849.07 759.45
  Q 849.06 752.43 843.92 748.11"
/>
<path stroke="#fabf8b" vector-effect="non-scaling-stroke" d="
  M 1182.22 751.04
  A 0.31 0.31 0.0 0 0 1181.61 751.05
  L 1170.66 829.90
  A 0.31 0.31 0.0 0 0 1170.97 830.25
  L 1193.02 830.25
  A 0.31 0.31 0.0 0 0 1193.33 829.90
  L 1182.22 751.04"
/>
</g>
<path fill="#ffffff" d="
  M 0.00 0.00
  L 1448.00 0.00
  L 1448.00 1448.00
  L 0.00 1448.00
  L 0.00 0.00
  Z
  M 93.05 513.23
  Q 79.38 557.34 101.77 596.77
  C 124.95 635.71 166.52 662.46 206.43 681.60
  C 244.12 699.82 284.09 713.28 322.81 729.19
  C 369.11 748.20 413.50 772.77 447.87 809.86
  C 459.48 822.38 468.08 835.70 476.57 850.42
  Q 476.90 850.99 477.12 850.37
  C 493.01 805.19 449.97 764.33 417.00 740.74
  C 383.13 716.52 344.81 696.26 306.73 678.71
  C 257.76 655.74 207.21 635.91 172.25 595.46
  C 153.01 572.82 143.01 543.28 155.15 514.67
  C 187.21 434.67 317.65 492.61 368.64 516.10
  A 0.23 0.23 0.0 0 0 368.88 515.72
  C 329.80 484.42 283.01 458.83 234.26 446.21
  C 170.31 429.64 114.01 445.30 93.05 513.23
  Z
  M 514.88 467.67
  Q 493.89 478.04 479.44 488.95
  C 455.46 507.06 431.37 525.81 404.76 539.85
  C 365.99 560.32 325.74 559.86 284.85 546.21
  A 0.46 0.46 0.0 0 0 284.25 546.70
  Q 284.33 547.45 285.39 548.80
  L 281.98 547.56
  A 0.36 0.36 0.0 0 0 281.61 548.15
  C 307.88 574.07 341.86 590.07 379.17 586.16
  Q 380.97 586.39 382.21 586.24
  C 418.62 581.63 452.23 564.69 482.49 544.73
  C 508.25 527.74 535.65 505.32 567.48 501.91
  C 607.50 500.08 607.21 542.36 604.40 569.68
  Q 595.45 656.72 571.08 740.73
  C 555.36 794.88 534.70 849.20 505.73 897.73
  C 496.39 913.38 486.22 927.41 471.22 937.41
  C 416.17 961.40 387.69 815.09 382.13 784.37
  C 381.93 783.26 382.19 781.91 381.96 780.86
  A 0.67 0.67 0.0 0 0 380.64 781.05
  Q 381.20 788.17 380.10 794.38
  L 378.64 782.79
  A 0.16 0.15 44.5 0 0 378.33 782.79
  C 377.27 794.91 376.87 807.54 376.78 819.75
  C 376.54 852.74 376.92 883.56 381.49 915.41
  C 386.31 948.96 400.41 991.37 434.31 1006.20
  Q 444.10 1010.48 454.74 1009.08
  Q 460.15 1009.99 467.26 1008.22
  C 500.52 999.95 524.43 971.28 542.09 943.83
  Q 562.59 911.99 579.43 875.68
  Q 627.19 772.73 648.85 661.27
  Q 657.85 614.93 659.23 567.76
  C 660.54 523.15 654.01 459.01 599.17 448.96
  C 593.27 447.88 586.63 448.28 580.32 448.24
  C 558.83 448.11 533.64 457.59 514.88 467.67
  Z
  M 899.37 656.62
  C 903.59 681.80 922.83 692.75 947.08 691.26
  C 974.70 689.57 987.53 670.70 987.53 644.00
  Q 987.53 595.67 987.48 547.34
  C 987.46 528.36 981.84 510.75 963.62 502.91
  C 953.31 498.47 940.02 498.08 928.94 500.67
  C 908.10 505.55 898.46 524.00 898.46 544.25
  Q 898.46 592.72 898.53 641.19
  Q 898.55 651.71 899.37 656.62
  Z
  M 1207.50 528.84
  A 0.34 0.34 0.0 0 1 1207.84 528.50
  L 1237.91 528.50
  A 0.34 0.34 0.0 0 0 1238.25 528.16
  L 1238.25 502.09
  A 0.34 0.34 0.0 0 0 1237.91 501.75
  L 1147.84 501.75
  A 0.34 0.34 0.0 0 0 1147.50 502.09
  L 1147.50 528.16
  A 0.34 0.34 0.0 0 0 1147.84 528.50
  L 1177.66 528.50
  A 0.34 0.34 0.0 0 1 1178.00 528.84
  L 1178.00 688.41
  A 0.34 0.34 0.0 0 0 1178.34 688.75
  L 1207.16 688.75
  A 0.34 0.34 0.0 0 0 1207.50 688.41
  L 1207.50 528.84
  Z
  M 1253.60 501.75
  Q 1252.20 501.75 1252.22 503.15
  L 1252.52 528.05
  Q 1252.53 528.44 1252.32 528.78
  Q 1252.20 528.98 1252.20 529.26
  Q 1252.21 608.71 1252.28 688.23
  Q 1252.28 688.75 1252.80 688.75
  L 1281.00 688.75
  Q 1281.50 688.75 1281.50 688.25
  L 1281.50 502.38
  Q 1281.50 501.75 1280.88 501.75
  L 1253.60 501.75
  Z
  M 827.85 612.67
  C 839.15 613.15 852.67 612.98 862.38 608.74
  C 878.85 601.53 884.64 585.22 884.75 568.00
  C 884.84 554.91 885.84 540.58 881.95 528.01
  C 876.16 509.30 860.43 501.76 841.74 501.74
  Q 820.17 501.70 798.48 501.78
  Q 798.00 501.78 798.00 502.26
  L 798.00 688.28
  Q 798.00 688.75 798.47 688.75
  L 826.75 688.75
  Q 827.25 688.75 827.25 688.25
  L 827.25 613.24
  Q 827.25 612.64 827.85 612.67
  Z
  M 1055.58 529.01
  Q 1029.14 594.72 1002.46 660.35
  Q 1001.47 662.78 1001.47 665.40
  Q 1001.49 676.78 1001.51 688.25
  Q 1001.51 688.75 1002.01 688.75
  L 1086.90 688.75
  Q 1087.55 688.75 1087.54 688.10
  L 1087.20 662.44
  A 0.45 0.44 -0.0 0 0 1086.75 662.00
  L 1033.49 662.00
  A 0.38 0.38 0.0 0 1 1033.14 661.48
  Q 1059.42 596.76 1085.74 531.98
  C 1089.18 523.53 1087.05 511.51 1087.54 502.35
  A 0.58 0.57 1.4 0 0 1086.96 501.75
  L 1004.75 501.75
  Q 1004.25 501.75 1004.25 502.25
  L 1004.25 528.00
  Q 1004.25 528.50 1004.75 528.50
  L 1055.24 528.50
  Q 1055.79 528.50 1055.58 529.01
  Z
  M 1133.75 502.02
  A 0.27 0.27 0.0 0 0 1133.48 501.75
  L 1104.78 501.75
  A 0.27 0.27 0.0 0 0 1104.51 502.02
  L 1104.51 688.48
  A 0.27 0.27 0.0 0 0 1104.78 688.75
  L 1133.48 688.75
  A 0.27 0.27 0.0 0 0 1133.75 688.48
  L 1133.75 502.02
  Z
  M 1344.66 646.20
  Q 1344.12 647.15 1343.80 646.46
  C 1343.61 646.05 1343.67 643.49 1343.51 642.25
  Q 1334.21 572.32 1324.90 502.31
  A 0.65 0.64 -3.5 0 0 1324.26 501.75
  L 1296.03 501.75
  A 0.65 0.65 0.0 0 0 1295.39 502.49
  L 1323.43 688.28
  Q 1323.50 688.75 1323.97 688.75
  L 1361.99 688.75
  A 0.56 0.56 0.0 0 0 1362.54 688.27
  L 1390.71 502.26
  Q 1390.78 501.75 1390.27 501.75
  L 1364.30 501.75
  Q 1363.85 501.75 1363.79 502.20
  L 1344.73 646.01
  A 0.45 0.38 -29.2 0 1 1344.66 646.20
  Z
  M 144.27 711.67
  Q 132.04 716.86 126.30 725.55
  C 109.92 750.33 150.04 773.39 167.34 781.01
  Q 167.95 781.28 167.35 781.59
  C 122.67 804.35 162.24 832.63 186.85 842.74
  L 180.71 845.91
  Q 172.88 848.86 168.03 853.34
  C 144.68 874.86 189.20 895.87 204.22 901.34
  L 197.72 904.77
  C 188.29 909.39 181.59 918.43 188.83 928.47
  C 195.14 937.22 206.84 943.26 216.52 947.56
  A 1.11 1.09 4.5 0 1 217.11 948.24
  C 222.48 966.11 230.55 985.35 242.84 999.65
  Q 249.27 1007.13 258.16 1006.98
  Q 264.37 1006.38 267.99 1003.48
  C 279.79 994.01 286.51 968.16 289.53 953.69
  A 1.44 1.44 0.0 0 1 290.54 952.61
  Q 309.34 947.16 315.85 928.78
  A 0.50 0.50 0.0 0 0 315.13 928.18
  C 304.64 934.16 295.45 938.80 282.98 939.09
  C 279.49 939.17 275.99 940.52 272.54 939.73
  Q 270.53 939.27 268.93 939.23
  C 254.52 938.84 226.29 933.09 218.27 919.23
  Q 214.82 913.28 219.27 905.42
  Q 239.45 911.41 260.78 909.75
  C 283.54 909.31 307.31 900.00 314.96 876.54
  A 0.34 0.34 0.0 0 0 314.47 876.13
  C 312.74 877.07 310.93 877.70 309.27 878.79
  Q 295.41 887.83 276.99 889.10
  C 253.52 890.72 222.36 887.26 204.48 871.55
  Q 193.02 861.48 201.19 849.00
  Q 202.47 848.99 202.95 849.15
  Q 227.29 856.81 252.37 857.84
  C 283.62 859.71 319.86 850.43 330.62 817.53
  A 0.38 0.38 0.0 0 0 330.07 817.09
  C 328.08 818.27 326.12 819.03 324.17 820.34
  C 300.65 836.11 267.23 836.12 240.71 830.39
  C 224.50 826.90 209.42 821.82 197.06 811.49
  C 191.68 806.98 187.02 797.06 191.10 790.09
  C 213.51 796.85 236.56 800.38 259.97 799.47
  C 292.63 798.48 326.07 786.16 337.15 752.44
  Q 337.31 751.97 336.82 752.09
  Q 333.58 752.89 332.05 754.04
  C 312.87 768.45 285.69 772.66 262.44 771.37
  C 237.67 770.00 213.51 765.19 191.59 753.15
  Q 182.04 747.90 176.57 740.66
  C 160.83 719.84 186.38 703.96 201.13 694.87
  A 0.32 0.31 24.5 0 0 200.91 694.29
  Q 175.30 698.31 150.99 707.96
  Q 147.00 709.55 144.27 711.67
  Z
  M 797.85 723.45
  L 798.13 882.85
  A 0.84 0.84 0.0 0 0 798.97 883.69
  L 839.09 883.62
  A 35.50 35.42 89.9 0 0 874.45 848.05
  L 874.29 757.97
  A 35.50 35.42 89.9 0 0 838.81 722.54
  L 798.69 722.61
  A 0.84 0.84 0.0 0 0 797.85 723.45
  Z
  M 951.25 788.72
  A 0.47 0.47 0.0 0 0 950.78 788.25
  L 916.72 788.25
  A 0.47 0.47 0.0 0 1 916.25 787.78
  L 916.44 745.97
  A 0.47 0.47 0.0 0 1 916.91 745.50
  L 959.74 745.50
  A 0.47 0.47 0.0 0 0 960.21 745.03
  L 960.27 723.21
  A 0.47 0.47 0.0 0 0 959.80 722.74
  L 891.74 722.66
  A 0.47 0.47 0.0 0 0 891.27 723.13
  L 891.20 883.03
  A 0.47 0.47 0.0 0 0 891.67 883.50
  L 959.53 883.50
  A 0.47 0.47 0.0 0 0 960.00 883.03
  L 960.08 861.22
  A 0.47 0.47 0.0 0 0 959.61 860.75
  L 916.83 860.75
  A 0.47 0.47 0.0 0 1 916.36 860.28
  L 916.35 811.72
  A 0.47 0.47 0.0 0 1 916.82 811.25
  L 950.78 811.25
  A 0.47 0.47 0.0 0 0 951.25 810.78
  L 951.25 788.72
  Z
  M 997.83 766.49
  L 1027.77 882.45
  Q 1028.04 883.51 1029.14 883.51
  L 1053.50 883.50
  Q 1054.00 883.49 1054.00 883.00
  L 1054.00 723.26
  Q 1054.00 722.77 1053.51 722.77
  L 1032.02 722.72
  Q 1031.50 722.72 1031.50 723.23
  L 1031.50 816.47
  Q 1031.50 820.96 1030.39 816.61
  L 1006.53 723.36
  Q 1006.35 722.65 1005.61 722.65
  L 975.23 722.79
  Q 974.75 722.80 974.75 723.27
  L 974.75 883.00
  Q 974.75 883.50 975.25 883.50
  L 996.74 883.50
  A 0.51 0.51 0.0 0 0 997.25 882.99
  Q 997.25 829.28 997.25 775.53
  C 997.25 773.16 996.61 769.59 997.39 766.49
  Q 997.61 765.63 997.83 766.49
  Z
  M 1066.60 745.04
  A 0.46 0.46 0.0 0 0 1067.06 745.50
  L 1092.54 745.50
  A 0.46 0.46 0.0 0 1 1093.00 745.96
  L 1093.00 883.04
  A 0.46 0.46 0.0 0 0 1093.46 883.50
  L 1117.86 883.50
  A 0.46 0.46 0.0 0 0 1118.32 883.04
  L 1118.57 745.95
  A 0.46 0.46 0.0 0 1 1119.03 745.49
  L 1144.29 745.53
  A 0.46 0.46 0.0 0 0 1144.75 745.07
  L 1144.75 723.05
  A 0.46 0.46 0.0 0 0 1144.29 722.59
  L 1066.91 722.82
  A 0.46 0.46 0.0 0 0 1066.45 723.28
  L 1066.60 745.04
  Z
  M 1196.18 852.11
  A 0.38 0.38 0.0 0 1 1196.56 852.44
  L 1200.97 883.17
  A 0.38 0.38 0.0 0 0 1201.35 883.50
  L 1225.80 883.50
  A 0.38 0.38 0.0 0 0 1226.18 883.06
  L 1200.09 723.06
  A 0.38 0.38 0.0 0 0 1199.72 722.74
  L 1166.09 722.73
  A 0.38 0.38 0.0 0 0 1165.72 723.05
  L 1139.65 883.04
  A 0.38 0.38 0.0 0 0 1140.03 883.48
  L 1162.66 883.54
  A 0.38 0.38 0.0 0 0 1163.04 883.21
  L 1167.53 852.63
  A 0.38 0.38 0.0 0 1 1167.91 852.31
  L 1196.18 852.11
  Z"
/>
<path fill="#fce034" d="
  M 155.15 514.67
  Q 152.42 512.54 147.25 512.29
  Q 117.82 510.89 93.05 513.23
  C 114.01 445.30 170.31 429.64 234.26 446.21
  C 283.01 458.83 329.80 484.42 368.88 515.72
  A 0.23 0.23 0.0 0 1 368.64 516.10
  C 317.65 492.61 187.21 434.67 155.15 514.67
  Z"
/>
<path fill="#0356e0" d="
  M 454.74 1009.08
  Q 438.27 1008.15 425.86 998.85
  C 422.62 996.42 419.31 994.05 416.61 991.12
  C 390.31 962.61 383.41 920.08 380.65 881.50
  Q 377.53 837.86 380.10 794.38
  Q 381.20 788.17 380.64 781.05
  A 0.67 0.67 0.0 0 1 381.96 780.86
  C 382.19 781.91 381.93 783.26 382.13 784.37
  C 387.69 815.09 416.17 961.40 471.22 937.41
  C 487.35 928.91 498.84 912.67 508.06 897.28
  C 537.09 848.81 557.90 794.16 573.65 740.04
  Q 599.23 652.16 607.76 561.00
  C 609.82 538.95 608.72 509.57 582.61 502.03
  Q 574.75 499.76 567.48 501.91
  C 535.65 505.32 508.25 527.74 482.49 544.73
  C 452.23 564.69 418.62 581.63 382.21 586.24
  Q 380.97 586.39 379.17 586.16
  C 371.07 585.55 362.19 586.04 355.06 585.04
  C 337.46 582.59 318.99 574.66 304.65 564.11
  Q 299.13 560.06 285.39 548.80
  Q 284.33 547.45 284.25 546.70
  A 0.46 0.46 0.0 0 1 284.85 546.21
  C 325.74 559.86 365.99 560.32 404.76 539.85
  L 405.16 539.98
  Q 405.65 540.15 406.10 539.90
  C 432.71 525.51 456.59 507.30 480.77 489.28
  Q 491.36 481.38 514.88 467.67
  C 533.64 457.59 558.83 448.11 580.32 448.24
  C 586.63 448.28 593.27 447.88 599.17 448.96
  C 654.01 459.01 660.54 523.15 659.23 567.76
  Q 657.85 614.93 648.85 661.27
  Q 627.19 772.73 579.43 875.68
  Q 562.59 911.99 542.09 943.83
  C 524.43 971.28 500.52 999.95 467.26 1008.22
  Q 460.15 1009.99 454.74 1009.08
  Z"
/>
<path fill="#0c2043" d="
  M 514.88 467.67
  Q 491.36 481.38 480.77 489.28
  C 456.59 507.30 432.71 525.51 406.10 539.90
  Q 405.65 540.15 405.16 539.98
  L 404.76 539.85
  C 431.37 525.81 455.46 507.06 479.44 488.95
  Q 493.89 478.04 514.88 467.67
  Z"
/>
<path fill="#0356e0" d="
  M 947.08 691.26
  C 922.83 692.75 903.59 681.80 899.37 656.62
  Q 898.55 651.71 898.53 641.19
  Q 898.46 592.72 898.46 544.25
  C 898.46 524.00 908.10 505.55 928.94 500.67
  C 940.02 498.08 953.31 498.47 963.62 502.91
  C 981.84 510.75 987.46 528.36 987.48 547.34
  Q 987.53 595.67 987.53 644.00
  C 987.53 670.70 974.70 689.57 947.08 691.26
  Z
  M 958.22 540.37
  A 14.68 14.68 0.0 0 0 943.54 525.69
  L 942.44 525.69
  A 14.68 14.68 0.0 0 0 927.76 540.37
  L 927.76 650.07
  A 14.68 14.68 0.0 0 0 942.44 664.75
  L 943.54 664.75
  A 14.68 14.68 0.0 0 0 958.22 650.07
  L 958.22 540.37
  Z"
/>
<path fill="#0c2043" d="
  M 471.22 937.41
  C 486.22 927.41 496.39 913.38 505.73 897.73
  C 534.70 849.20 555.36 794.88 571.08 740.73
  Q 595.45 656.72 604.40 569.68
  C 607.21 542.36 607.50 500.08 567.48 501.91
  Q 574.75 499.76 582.61 502.03
  C 608.72 509.57 609.82 538.95 607.76 561.00
  Q 599.23 652.16 573.65 740.04
  C 557.90 794.16 537.09 848.81 508.06 897.28
  C 498.84 912.67 487.35 928.91 471.22 937.41
  Z"
/>
<path fill="#0356e0" d="
  M 1207.50 528.84
  L 1207.50 688.41
  A 0.34 0.34 0.0 0 1 1207.16 688.75
  L 1178.34 688.75
  A 0.34 0.34 0.0 0 1 1178.00 688.41
  L 1178.00 528.84
  A 0.34 0.34 0.0 0 0 1177.66 528.50
  L 1147.84 528.50
  A 0.34 0.34 0.0 0 1 1147.50 528.16
  L 1147.50 502.09
  A 0.34 0.34 0.0 0 1 1147.84 501.75
  L 1237.91 501.75
  A 0.34 0.34 0.0 0 1 1238.25 502.09
  L 1238.25 528.16
  A 0.34 0.34 0.0 0 1 1237.91 528.50
  L 1207.84 528.50
  A 0.34 0.34 0.0 0 0 1207.50 528.84
  Z"
/>
<path fill="#0356e0" d="
  M 1253.60 501.75
  L 1280.88 501.75
  Q 1281.50 501.75 1281.50 502.38
  L 1281.50 688.25
  Q 1281.50 688.75 1281.00 688.75
  L 1252.80 688.75
  Q 1252.28 688.75 1252.28 688.23
  Q 1252.21 608.71 1252.20 529.26
  Q 1252.20 528.98 1252.32 528.78
  Q 1252.53 528.44 1252.52 528.05
  L 1252.22 503.15
  Q 1252.20 501.75 1253.60 501.75
  Z"
/>
<path fill="#0356e0" d="
  M 827.25 613.24
  L 827.25 688.25
  Q 827.25 688.75 826.75 688.75
  L 798.47 688.75
  Q 798.00 688.75 798.00 688.28
  L 798.00 502.26
  Q 798.00 501.78 798.48 501.78
  Q 820.17 501.70 841.74 501.74
  C 860.43 501.76 876.16 509.30 881.95 528.01
  C 885.84 540.58 884.84 554.91 884.75 568.00
  C 884.64 585.22 878.85 601.53 862.38 608.74
  C 852.67 612.98 839.15 613.15 827.85 612.67
  Q 827.25 612.64 827.25 613.24
  Z
  M 827.24 528.99
  L 827.24 585.47
  A 0.57 0.57 0.0 0 0 827.81 586.04
  L 841.75 586.04
  A 13.79 13.75 90.0 0 0 855.50 572.25
  L 855.50 542.21
  A 13.79 13.75 -90.0 0 0 841.75 528.42
  L 827.81 528.42
  A 0.57 0.57 0.0 0 0 827.24 528.99
  Z"
/>
<path fill="#0356e0" d="
  M 1055.24 528.50
  L 1004.75 528.50
  Q 1004.25 528.50 1004.25 528.00
  L 1004.25 502.25
  Q 1004.25 501.75 1004.75 501.75
  L 1086.96 501.75
  A 0.58 0.57 1.4 0 1 1087.54 502.35
  C 1087.05 511.51 1089.18 523.53 1085.74 531.98
  Q 1059.42 596.76 1033.14 661.48
  A 0.38 0.38 0.0 0 0 1033.49 662.00
  L 1086.75 662.00
  A 0.45 0.44 0.0 0 1 1087.20 662.44
  L 1087.54 688.10
  Q 1087.55 688.75 1086.90 688.75
  L 1002.01 688.75
  Q 1001.51 688.75 1001.51 688.25
  Q 1001.49 676.78 1001.47 665.40
  Q 1001.47 662.78 1002.46 660.35
  Q 1029.14 594.72 1055.58 529.01
  Q 1055.79 528.50 1055.24 528.50
  Z"
/>
<rect fill="#0356e0" x="1104.51" y="501.75" width="29.24" height="187.00" rx="0.27"/>
<path fill="#0356e0" d="
  M 1344.66 646.20
  A 0.45 0.38 -29.2 0 0 1344.73 646.01
  L 1363.79 502.20
  Q 1363.85 501.75 1364.30 501.75
  L 1390.27 501.75
  Q 1390.78 501.75 1390.71 502.26
  L 1362.54 688.27
  A 0.56 0.56 0.0 0 1 1361.99 688.75
  L 1323.97 688.75
  Q 1323.50 688.75 1323.43 688.28
  L 1295.39 502.49
  A 0.65 0.65 0.0 0 1 1296.03 501.75
  L 1324.26 501.75
  A 0.65 0.64 -3.5 0 1 1324.90 502.31
  Q 1334.21 572.32 1343.51 642.25
  C 1343.67 643.49 1343.61 646.05 1343.80 646.46
  Q 1344.12 647.15 1344.66 646.20
  Z"
/>
<path fill="#f9b22a" d="
  M 155.15 514.67
  C 143.01 543.28 153.01 572.82 172.25 595.46
  Q 170.33 595.51 168.38 595.93
  C 164.80 596.69 160.99 596.05 157.06 596.15
  C 139.65 596.56 120.20 595.37 101.77 596.77
  Q 79.38 557.34 93.05 513.23
  Q 117.82 510.89 147.25 512.29
  Q 152.42 512.54 155.15 514.67
  Z"
/>
<rect fill="#ffffff" x="927.76" y="525.69" width="30.46" height="139.06" rx="14.68"/>
<path fill="#ffffff" d="
  M 827.24 528.99
  A 0.57 0.57 0.0 0 1 827.81 528.42
  L 841.75 528.42
  A 13.79 13.75 90.0 0 1 855.50 542.21
  L 855.50 572.25
  A 13.79 13.75 -90.0 0 1 841.75 586.04
  L 827.81 586.04
  A 0.57 0.57 0.0 0 1 827.24 585.47
  L 827.24 528.99
  Z"
/>
<path fill="#0c2043" d="
  M 285.39 548.80
  Q 299.13 560.06 304.65 564.11
  C 318.99 574.66 337.46 582.59 355.06 585.04
  C 362.19 586.04 371.07 585.55 379.17 586.16
  C 341.86 590.07 307.88 574.07 281.61 548.15
  A 0.36 0.36 0.0 0 1 281.98 547.56
  L 285.39 548.80
  Z"
/>
<path fill="#f57f17" d="
  M 172.25 595.46
  C 207.21 635.91 257.76 655.74 306.73 678.71
  Q 303.72 679.87 298.07 679.84
  C 268.72 679.70 239.38 679.50 210.02 679.49
  Q 209.91 679.49 208.15 679.23
  Q 206.30 678.96 206.43 681.60
  C 166.52 662.46 124.95 635.71 101.77 596.77
  C 120.20 595.37 139.65 596.56 157.06 596.15
  C 160.99 596.05 164.80 596.69 168.38 595.93
  Q 170.33 595.51 172.25 595.46
  Z"
/>
<path fill="#eb3b1f" d="
  M 306.73 678.71
  C 344.81 696.26 383.13 716.52 417.00 740.74
  C 449.97 764.33 493.01 805.19 477.12 850.37
  Q 476.90 850.99 476.57 850.42
  C 468.08 835.70 459.48 822.38 447.87 809.86
  C 413.50 772.77 369.11 748.20 322.81 729.19
  C 284.09 713.28 244.12 699.82 206.43 681.60
  Q 206.30 678.96 208.15 679.23
  Q 209.91 679.49 210.02 679.49
  C 239.38 679.50 268.72 679.70 298.07 679.84
  Q 303.72 679.87 306.73 678.71
  Z"
/>
<path fill="#0356e0" d="
  M 259.97 799.47
  Q 260.54 799.07 259.39 798.81
  Q 259.05 798.73 258.59 798.73
  Q 224.79 799.25 192.66 788.84
  A 1.27 1.25 -49.9 0 0 191.71 788.93
  Q 190.80 789.41 191.10 790.09
  C 187.02 797.06 191.68 806.98 197.06 811.49
  C 209.42 821.82 224.50 826.90 240.71 830.39
  C 267.23 836.12 300.65 836.11 324.17 820.34
  C 326.12 819.03 328.08 818.27 330.07 817.09
  A 0.38 0.38 0.0 0 1 330.62 817.53
  C 319.86 850.43 283.62 859.71 252.37 857.84
  Q 254.36 856.96 256.39 857.26
  Q 256.44 857.26 256.44 857.21
  Q 256.44 857.19 256.44 857.16
  Q 256.43 857.06 256.33 857.06
  C 237.86 857.06 221.35 853.09 203.66 847.59
  Q 203.15 847.43 202.74 847.76
  L 201.19 849.00
  Q 193.02 861.48 204.48 871.55
  C 222.36 887.26 253.52 890.72 276.99 889.10
  Q 295.41 887.83 309.27 878.79
  C 310.93 877.70 312.74 877.07 314.47 876.13
  A 0.34 0.34 0.0 0 1 314.96 876.54
  C 307.31 900.00 283.54 909.31 260.78 909.75
  Q 240.14 908.94 219.27 905.42
  Q 214.82 913.28 218.27 919.23
  C 226.29 933.09 254.52 938.84 268.93 939.23
  Q 270.53 939.27 272.54 939.73
  C 275.99 940.52 279.49 939.17 282.98 939.09
  C 295.45 938.80 304.64 934.16 315.13 928.18
  A 0.50 0.50 0.0 0 1 315.85 928.78
  Q 309.34 947.16 290.54 952.61
  A 1.44 1.44 0.0 0 0 289.53 953.69
  C 286.51 968.16 279.79 994.01 267.99 1003.48
  Q 264.37 1006.38 258.16 1006.98
  Q 248.51 1002.85 243.29 995.94
  C 232.56 981.72 225.82 964.51 220.21 947.91
  Q 220.05 947.44 219.64 947.17
  Q 218.80 946.61 217.91 946.21
  C 206.20 941.03 177.67 925.10 193.56 908.91
  Q 195.54 906.89 197.72 904.77
  L 204.22 901.34
  Q 205.03 901.60 206.13 901.13
  A 0.54 0.53 43.0 0 0 206.09 900.14
  C 191.71 894.98 169.88 884.43 165.15 868.62
  C 163.58 863.39 165.90 857.13 169.57 853.57
  Q 172.84 850.40 180.71 845.91
  L 186.85 842.74
  Q 187.81 843.38 188.66 842.64
  A 0.65 0.64 -52.8 0 0 188.52 841.57
  C 165.40 830.53 125.99 804.35 169.29 781.25
  A 0.91 0.90 -47.2 0 0 169.23 779.62
  C 144.20 768.76 99.99 737.74 144.27 711.67
  Q 147.00 709.55 150.99 707.96
  Q 175.30 698.31 200.91 694.29
  A 0.32 0.31 24.5 0 1 201.13 694.87
  C 186.38 703.96 160.83 719.84 176.57 740.66
  Q 182.04 747.90 191.59 753.15
  C 213.51 765.19 237.67 770.00 262.44 771.37
  C 285.69 772.66 312.87 768.45 332.05 754.04
  Q 333.58 752.89 336.82 752.09
  Q 337.31 751.97 337.15 752.44
  C 326.07 786.16 292.63 798.48 259.97 799.47
  Z"
/>
<path fill="#0c2043" d="
  M 144.27 711.67
  C 99.99 737.74 144.20 768.76 169.23 779.62
  A 0.91 0.90 -47.2 0 1 169.29 781.25
  C 125.99 804.35 165.40 830.53 188.52 841.57
  A 0.65 0.64 -52.8 0 1 188.66 842.64
  Q 187.81 843.38 186.85 842.74
  C 162.24 832.63 122.67 804.35 167.35 781.59
  Q 167.95 781.28 167.34 781.01
  C 150.04 773.39 109.92 750.33 126.30 725.55
  Q 132.04 716.86 144.27 711.67
  Z"
/>
<path fill="#f57f17" d="
  M 797.85 723.45
  A 0.84 0.84 0.0 0 1 798.69 722.61
  L 838.81 722.54
  A 35.50 35.42 89.9 0 1 874.29 757.97
  L 874.45 848.05
  A 35.50 35.42 89.9 0 1 839.09 883.62
  L 798.97 883.69
  A 0.84 0.84 0.0 0 1 798.13 882.85
  L 797.85 723.45
  Z
  M 843.92 748.11
  C 839.37 744.28 829.88 745.40 824.18 745.53
  Q 823.25 745.56 823.25 746.49
  L 823.25 860.00
  Q 823.25 860.51 823.76 860.55
  C 837.16 861.41 848.92 862.02 848.98 845.75
  Q 849.10 814.00 849.07 759.45
  Q 849.06 752.43 843.92 748.11
  Z"
/>
<path fill="#f57f17" d="
  M 951.25 788.72
  L 951.25 810.78
  A 0.47 0.47 0.0 0 1 950.78 811.25
  L 916.82 811.25
  A 0.47 0.47 0.0 0 0 916.35 811.72
  L 916.36 860.28
  A 0.47 0.47 0.0 0 0 916.83 860.75
  L 959.61 860.75
  A 0.47 0.47 0.0 0 1 960.08 861.22
  L 960.00 883.03
  A 0.47 0.47 0.0 0 1 959.53 883.50
  L 891.67 883.50
  A 0.47 0.47 0.0 0 1 891.20 883.03
  L 891.27 723.13
  A 0.47 0.47 0.0 0 1 891.74 722.66
  L 959.80 722.74
  A 0.47 0.47 0.0 0 1 960.27 723.21
  L 960.21 745.03
  A 0.47 0.47 0.0 0 1 959.74 745.50
  L 916.91 745.50
  A 0.47 0.47 0.0 0 0 916.44 745.97
  L 916.25 787.78
  A 0.47 0.47 0.0 0 0 916.72 788.25
  L 950.78 788.25
  A 0.47 0.47 0.0 0 1 951.25 788.72
  Z"
/>
<path fill="#f57f17" d="
  M 997.39 766.49
  C 996.61 769.59 997.25 773.16 997.25 775.53
  Q 997.25 829.28 997.25 882.99
  A 0.51 0.51 0.0 0 1 996.74 883.50
  L 975.25 883.50
  Q 974.75 883.50 974.75 883.00
  L 974.75 723.27
  Q 974.75 722.80 975.23 722.79
  L 1005.61 722.65
  Q 1006.35 722.65 1006.53 723.36
  L 1030.39 816.61
  Q 1031.50 820.96 1031.50 816.47
  L 1031.50 723.23
  Q 1031.50 722.72 1032.02 722.72
  L 1053.51 722.77
  Q 1054.00 722.77 1054.00 723.26
  L 1054.00 883.00
  Q 1054.00 883.49 1053.50 883.50
  L 1029.14 883.51
  Q 1028.04 883.51 1027.77 882.45
  L 997.83 766.49
  Q 997.61 765.63 997.39 766.49
  Z"
/>
<path fill="#f57f17" d="
  M 1066.60 745.04
  L 1066.45 723.28
  A 0.46 0.46 0.0 0 1 1066.91 722.82
  L 1144.29 722.59
  A 0.46 0.46 0.0 0 1 1144.75 723.05
  L 1144.75 745.07
  A 0.46 0.46 0.0 0 1 1144.29 745.53
  L 1119.03 745.49
  A 0.46 0.46 0.0 0 0 1118.57 745.95
  L 1118.32 883.04
  A 0.46 0.46 0.0 0 1 1117.86 883.50
  L 1093.46 883.50
  A 0.46 0.46 0.0 0 1 1093.00 883.04
  L 1093.00 745.96
  A 0.46 0.46 0.0 0 0 1092.54 745.50
  L 1067.06 745.50
  A 0.46 0.46 0.0 0 1 1066.60 745.04
  Z"
/>
<path fill="#f57f17" d="
  M 1196.18 852.11
  L 1167.91 852.31
  A 0.38 0.38 0.0 0 0 1167.53 852.63
  L 1163.04 883.21
  A 0.38 0.38 0.0 0 1 1162.66 883.54
  L 1140.03 883.48
  A 0.38 0.38 0.0 0 1 1139.65 883.04
  L 1165.72 723.05
  A 0.38 0.38 0.0 0 1 1166.09 722.73
  L 1199.72 722.74
  A 0.38 0.38 0.0 0 1 1200.09 723.06
  L 1226.18 883.06
  A 0.38 0.38 0.0 0 1 1225.80 883.50
  L 1201.35 883.50
  A 0.38 0.38 0.0 0 1 1200.97 883.17
  L 1196.56 852.44
  A 0.38 0.38 0.0 0 0 1196.18 852.11
  Z
  M 1182.22 751.04
  A 0.31 0.31 0.0 0 0 1181.61 751.05
  L 1170.66 829.90
  A 0.31 0.31 0.0 0 0 1170.97 830.25
  L 1193.02 830.25
  A 0.31 0.31 0.0 0 0 1193.33 829.90
  L 1182.22 751.04
  Z"
/>
<path fill="#ffffff" d="
  M 843.92 748.11
  Q 849.06 752.43 849.07 759.45
  Q 849.10 814.00 848.98 845.75
  C 848.92 862.02 837.16 861.41 823.76 860.55
  Q 823.25 860.51 823.25 860.00
  L 823.25 746.49
  Q 823.25 745.56 824.18 745.53
  C 829.88 745.40 839.37 744.28 843.92 748.11
  Z"
/>
<path fill="#ffffff" d="
  M 1182.22 751.04
  L 1193.33 829.90
  A 0.31 0.31 0.0 0 1 1193.02 830.25
  L 1170.97 830.25
  A 0.31 0.31 0.0 0 1 1170.66 829.90
  L 1181.61 751.05
  A 0.31 0.31 0.0 0 1 1182.22 751.04
  Z"
/>
<path fill="#0c2043" d="
  M 380.10 794.38
  Q 377.53 837.86 380.65 881.50
  C 383.41 920.08 390.31 962.61 416.61 991.12
  C 419.31 994.05 422.62 996.42 425.86 998.85
  Q 438.27 1008.15 454.74 1009.08
  Q 444.10 1010.48 434.31 1006.20
  C 400.41 991.37 386.31 948.96 381.49 915.41
  C 376.92 883.56 376.54 852.74 376.78 819.75
  C 376.87 807.54 377.27 794.91 378.33 782.79
  A 0.16 0.15 44.5 0 1 378.64 782.79
  L 380.10 794.38
  Z"
/>
<path fill="#0c2043" d="
  M 259.97 799.47
  C 236.56 800.38 213.51 796.85 191.10 790.09
  Q 190.80 789.41 191.71 788.93
  A 1.27 1.25 -49.9 0 1 192.66 788.84
  Q 224.79 799.25 258.59 798.73
  Q 259.05 798.73 259.39 798.81
  Q 260.54 799.07 259.97 799.47
  Z"
/>
<path fill="#0c2043" d="
  M 180.71 845.91
  Q 172.84 850.40 169.57 853.57
  C 165.90 857.13 163.58 863.39 165.15 868.62
  C 169.88 884.43 191.71 894.98 206.09 900.14
  A 0.54 0.53 43.0 0 1 206.13 901.13
  Q 205.03 901.60 204.22 901.34
  C 189.20 895.87 144.68 874.86 168.03 853.34
  Q 172.88 848.86 180.71 845.91
  Z"
/>
<path fill="#0c2043" d="
  M 252.37 857.84
  Q 227.29 856.81 202.95 849.15
  Q 202.47 848.99 201.19 849.00
  L 202.74 847.76
  Q 203.15 847.43 203.66 847.59
  C 221.35 853.09 237.86 857.06 256.33 857.06
  Q 256.43 857.06 256.44 857.16
  Q 256.44 857.19 256.44 857.21
  Q 256.44 857.26 256.39 857.26
  Q 254.36 856.96 252.37 857.84
  Z"
/>
<path fill="#0c2043" d="
  M 197.72 904.77
  Q 195.54 906.89 193.56 908.91
  C 177.67 925.10 206.20 941.03 217.91 946.21
  Q 218.80 946.61 219.64 947.17
  Q 220.05 947.44 220.21 947.91
  C 225.82 964.51 232.56 981.72 243.29 995.94
  Q 248.51 1002.85 258.16 1006.98
  Q 249.27 1007.13 242.84 999.65
  C 230.55 985.35 222.48 966.11 217.11 948.24
  A 1.11 1.09 4.5 0 0 216.52 947.56
  C 206.84 943.26 195.14 937.22 188.83 928.47
  C 181.59 918.43 188.29 909.39 197.72 904.77
  Z"
/>
<path fill="#0c2043" d="
  M 260.78 909.75
  Q 239.45 911.41 219.27 905.42
  Q 240.14 908.94 260.78 909.75
  Z"
/>
</svg>
